<?xml version="1.0" encoding="UTF-8" standalone="no"?>
<!DOCTYPE svg PUBLIC "-//W3C//DTD SVG 1.1//EN"
 "http://www.w3.org/Graphics/SVG/1.1/DTD/svg11.dtd">
<!-- Generated by graphviz version 2.26.3 (20100126.1600)
 -->
<!-- Title: G Pages: 1 -->
<svg width="766pt" height="500pt"
 viewBox="0.00 0.00 766.00 500.00" xmlns="http://www.w3.org/2000/svg" xmlns:xlink="http://www.w3.org/1999/xlink">
<g id="graph1" class="graph" transform="scale(1 1) rotate(0) translate(4 496)">
<title>G</title>
<polygon fill="white" stroke="white" points="-4,5 -4,-496 763,-496 763,5 -4,5"/>
<g id="graph2" class="cluster"><title>cluster_Global</title>
<polyline fill="none" stroke="gray" points="20,-44 738,-44 "/>
<path fill="none" stroke="gray" d="M738,-44C744,-44 750,-50 750,-56"/>
<polyline fill="none" stroke="gray" points="750,-56 750,-472 "/>
<path fill="none" stroke="gray" d="M750,-472C750,-478 744,-484 738,-484"/>
<polyline fill="none" stroke="gray" points="738,-484 20,-484 "/>
<path fill="none" stroke="gray" d="M20,-484C14,-484 8,-478 8,-472"/>
<polyline fill="none" stroke="gray" points="8,-472 8,-56 "/>
<path fill="none" stroke="gray" d="M8,-56C8,-50 14,-44 20,-44"/>
<text text-anchor="middle" x="379" y="-470.1" font-family="Times Roman,serif" font-size="11.00" fill="gray">\</text>
</g>
<g id="graph3" class="cluster"><title>cluster_\Phine</title>
<polyline fill="none" stroke="gray" points="28,-52 730,-52 "/>
<path fill="none" stroke="gray" d="M730,-52C736,-52 742,-58 742,-64"/>
<polyline fill="none" stroke="gray" points="742,-64 742,-442 "/>
<path fill="none" stroke="gray" d="M742,-442C742,-448 736,-454 730,-454"/>
<polyline fill="none" stroke="gray" points="730,-454 28,-454 "/>
<path fill="none" stroke="gray" d="M28,-454C22,-454 16,-448 16,-442"/>
<polyline fill="none" stroke="gray" points="16,-442 16,-64 "/>
<path fill="none" stroke="gray" d="M16,-64C16,-58 22,-52 28,-52"/>
<text text-anchor="middle" x="379" y="-440.1" font-family="Times Roman,serif" font-size="11.00" fill="gray">Phine</text>
</g>
<g id="graph4" class="cluster"><title>cluster_\Phine\Observer</title>
<polyline fill="none" stroke="gray" points="36,-60 722,-60 "/>
<path fill="none" stroke="gray" d="M722,-60C728,-60 734,-66 734,-72"/>
<polyline fill="none" stroke="gray" points="734,-72 734,-412 "/>
<path fill="none" stroke="gray" d="M734,-412C734,-418 728,-424 722,-424"/>
<polyline fill="none" stroke="gray" points="722,-424 36,-424 "/>
<path fill="none" stroke="gray" d="M36,-424C30,-424 24,-418 24,-412"/>
<polyline fill="none" stroke="gray" points="24,-412 24,-72 "/>
<path fill="none" stroke="gray" d="M24,-72C24,-66 30,-60 36,-60"/>
<text text-anchor="middle" x="379" y="-410.1" font-family="Times Roman,serif" font-size="11.00" fill="gray">Observer</text>
</g>
<g id="graph5" class="cluster"><title>cluster_\Phine\Observer\Exception</title>
<polyline fill="none" stroke="gray" points="600,-114 714,-114 "/>
<path fill="none" stroke="gray" d="M714,-114C720,-114 726,-120 726,-126"/>
<polyline fill="none" stroke="gray" points="726,-126 726,-284 "/>
<path fill="none" stroke="gray" d="M726,-284C726,-290 720,-296 714,-296"/>
<polyline fill="none" stroke="gray" points="714,-296 600,-296 "/>
<path fill="none" stroke="gray" d="M600,-296C594,-296 588,-290 588,-284"/>
<polyline fill="none" stroke="gray" points="588,-284 588,-126 "/>
<path fill="none" stroke="gray" d="M588,-126C588,-120 594,-114 600,-114"/>
<text text-anchor="middle" x="657" y="-282.1" font-family="Times Roman,serif" font-size="11.00" fill="gray">Exception</text>
</g>
<!-- \\Phine\\Observer\\Exception\\SubjectException -->
<g id="node5" class="node"><title>\\Phine\\Observer\\Exception\\SubjectException</title>
<polygon fill="none" stroke="black" points="712,-266 602,-266 602,-230 712,-230 712,-266"/>
<text text-anchor="middle" x="657" y="-245.1" font-family="Times Roman,serif" font-size="11.00">SubjectException</text>
</g>
<!-- \\Phine\\Exception\\Exception -->
<g id="node20" class="node"><title>\\Phine\\Exception\\Exception</title>
<ellipse fill="none" stroke="black" cx="380" cy="-18" rx="144.25" ry="18.3848"/>
<text text-anchor="middle" x="380" y="-14.4" font-family="Times Roman,serif" font-size="14.00" fill="gray">\Phine\Exception\Exception</text>
</g>
<!-- \\Phine\\Observer\\Exception\\SubjectException&#45;&gt;\\Phine\\Exception\\Exception -->
<g id="edge14" class="edge"><title>\\Phine\\Observer\\Exception\\SubjectException&#45;&gt;\\Phine\\Exception\\Exception</title>
<path fill="none" stroke="black" d="M601.297,-231.164C596.446,-228.28 591.905,-224.917 588,-221 532.464,-165.299 582.645,-108.418 524,-56 513.839,-46.9182 501.759,-39.9652 488.979,-34.6494"/>
<polygon fill="none" stroke="black" points="490.158,-31.3533 479.567,-31.0611 487.664,-37.894 490.158,-31.3533"/>
</g>
<!-- \\Phine\\Observer\\Exception\\CollectionException -->
<g id="node6" class="node"><title>\\Phine\\Observer\\Exception\\CollectionException</title>
<polygon fill="none" stroke="black" points="718,-212 596,-212 596,-176 718,-176 718,-212"/>
<text text-anchor="middle" x="657" y="-191.1" font-family="Times Roman,serif" font-size="11.00">CollectionException</text>
</g>
<!-- \\Phine\\Observer\\Exception\\CollectionException&#45;&gt;\\Phine\\Exception\\Exception -->
<g id="edge16" class="edge"><title>\\Phine\\Observer\\Exception\\CollectionException&#45;&gt;\\Phine\\Exception\\Exception</title>
<path fill="none" stroke="black" d="M600.858,-175.938C596.267,-173.322 591.901,-170.355 588,-167 544.828,-129.864 569.234,-90.594 524,-56 512.319,-47.0666 498.721,-40.227 484.633,-34.9918"/>
<polygon fill="none" stroke="black" points="485.415,-31.5594 474.82,-31.6177 483.139,-38.1791 485.415,-31.5594"/>
</g>
<!-- \\Phine\\Observer\\Exception\\ReasonException -->
<g id="node7" class="node"><title>\\Phine\\Observer\\Exception\\ReasonException</title>
<polygon fill="none" stroke="black" points="712,-158 602,-158 602,-122 712,-122 712,-158"/>
<text text-anchor="middle" x="657" y="-137.1" font-family="Times Roman,serif" font-size="11.00">ReasonException</text>
</g>
<!-- \\Phine\\Observer\\Exception\\ReasonException&#45;&gt;\\Phine\\Exception\\Exception -->
<g id="edge18" class="edge"><title>\\Phine\\Observer\\Exception\\ReasonException&#45;&gt;\\Phine\\Exception\\Exception</title>
<path fill="none" stroke="black" d="M601.745,-124.958C596.968,-122.894 592.316,-120.582 588,-118 554.014,-97.6697 558.49,-75.4633 524,-56 508.847,-47.449 491.71,-40.7678 474.68,-35.5642"/>
<polygon fill="none" stroke="black" points="475.26,-32.0884 464.681,-32.6682 473.313,-38.8121 475.26,-32.0884"/>
</g>
<!-- \\Phine\\Observer\\Collection -->
<g id="node8" class="node"><title>\\Phine\\Observer\\Collection</title>
<polygon fill="none" stroke="black" points="414,-340 346,-340 346,-304 414,-304 414,-340"/>
<text text-anchor="middle" x="380" y="-319.1" font-family="Times Roman,serif" font-size="11.00">Collection</text>
</g>
<!-- \\Phine\\Observer\\CollectionInterface -->
<g id="node13" class="node"><title>\\Phine\\Observer\\CollectionInterface</title>
<polygon fill="none" stroke="black" points="148,-313 32,-313 32,-277 148,-277 148,-313"/>
<text text-anchor="middle" x="90" y="-292.1" font-family="Times Roman,serif" font-size="11.00">CollectionInterface</text>
</g>
<!-- \\Phine\\Observer\\Collection&#45;&gt;\\Phine\\Observer\\CollectionInterface -->
<g id="edge6" class="edge"><title>\\Phine\\Observer\\Collection&#45;&gt;\\Phine\\Observer\\CollectionInterface</title>
<path fill="none" stroke="black" stroke-dasharray="1,5" d="M345.881,-318.823C299.952,-314.547 217.208,-306.843 158.249,-301.354"/>
<polygon fill="none" stroke="black" points="158.549,-297.867 148.267,-300.425 157.9,-304.837 158.549,-297.867"/>
</g>
<!-- \\Phine\\Observer\\Subject -->
<g id="node9" class="node"><title>\\Phine\\Observer\\Subject</title>
<polygon fill="none" stroke="black" points="685,-394 629,-394 629,-358 685,-358 685,-394"/>
<text text-anchor="middle" x="657" y="-373.1" font-family="Times Roman,serif" font-size="11.00">Subject</text>
</g>
<!-- \\Phine\\Observer\\SubjectInterface -->
<g id="node14" class="node"><title>\\Phine\\Observer\\SubjectInterface</title>
<polygon fill="none" stroke="black" points="432,-394 328,-394 328,-358 432,-358 432,-394"/>
<text text-anchor="middle" x="380" y="-373.1" font-family="Times Roman,serif" font-size="11.00">SubjectInterface</text>
</g>
<!-- \\Phine\\Observer\\Subject&#45;&gt;\\Phine\\Observer\\SubjectInterface -->
<g id="edge8" class="edge"><title>\\Phine\\Observer\\Subject&#45;&gt;\\Phine\\Observer\\SubjectInterface</title>
<path fill="none" stroke="black" stroke-dasharray="1,5" d="M628.399,-376C584.911,-376 501.078,-376 442.901,-376"/>
<polygon fill="none" stroke="black" points="442.714,-372.5 432.714,-376 442.714,-379.5 442.714,-372.5"/>
</g>
<!-- \\Phine\\Observer\\ArrayCollection -->
<g id="node10" class="node"><title>\\Phine\\Observer\\ArrayCollection</title>
<polygon fill="none" stroke="black" points="706,-340 608,-340 608,-304 706,-304 706,-340"/>
<text text-anchor="middle" x="657" y="-319.1" font-family="Times Roman,serif" font-size="11.00">ArrayCollection</text>
</g>
<!-- \\Phine\\Observer\\ArrayCollection&#45;&gt;\\Phine\\Observer\\Collection -->
<g id="edge10" class="edge"><title>\\Phine\\Observer\\ArrayCollection&#45;&gt;\\Phine\\Observer\\Collection</title>
<path fill="none" stroke="black" d="M607.797,-322C555.836,-322 474.643,-322 424.524,-322"/>
<polygon fill="none" stroke="black" points="424.323,-318.5 414.323,-322 424.323,-325.5 424.323,-318.5"/>
</g>
<!-- \\Phine\\Observer\\ArrayCollectionInterface -->
<g id="node11" class="node"><title>\\Phine\\Observer\\ArrayCollectionInterface</title>
<polygon fill="none" stroke="black" points="453,-286 307,-286 307,-250 453,-250 453,-286"/>
<text text-anchor="middle" x="380" y="-265.1" font-family="Times Roman,serif" font-size="11.00">ArrayCollectionInterface</text>
</g>
<!-- \\Phine\\Observer\\ArrayCollection&#45;&gt;\\Phine\\Observer\\ArrayCollectionInterface -->
<g id="edge12" class="edge"><title>\\Phine\\Observer\\ArrayCollection&#45;&gt;\\Phine\\Observer\\ArrayCollectionInterface</title>
<path fill="none" stroke="black" stroke-dasharray="1,5" d="M607.769,-311.823C582.708,-306.689 551.75,-300.418 524,-295 504.352,-291.164 483.175,-287.135 463.266,-283.393"/>
<polygon fill="none" stroke="black" points="463.771,-279.927 453.297,-281.524 462.481,-286.807 463.771,-279.927"/>
</g>
<!-- \\Phine\\Observer\\ArrayCollectionInterface&#45;&gt;\\Phine\\Observer\\CollectionInterface -->
<g id="edge22" class="edge"><title>\\Phine\\Observer\\ArrayCollectionInterface&#45;&gt;\\Phine\\Observer\\CollectionInterface</title>
<path fill="none" stroke="black" d="M306.821,-274.813C261.21,-279.06 202.915,-284.487 158.261,-288.645"/>
<polygon fill="none" stroke="black" points="157.719,-285.18 148.087,-289.592 158.368,-292.15 157.719,-285.18"/>
</g>
<!-- \\ArrayAccess -->
<g id="node24" class="node"><title>\\ArrayAccess</title>
<ellipse fill="none" stroke="black" cx="90" cy="-18" rx="73.0388" ry="18.3848"/>
<text text-anchor="middle" x="90" y="-14.4" font-family="Times Roman,serif" font-size="14.00" fill="gray">\ArrayAccess</text>
</g>
<!-- \\Phine\\Observer\\ArrayCollectionInterface&#45;&gt;\\ArrayAccess -->
<g id="edge20" class="edge"><title>\\Phine\\Observer\\ArrayCollectionInterface&#45;&gt;\\ArrayAccess</title>
<path fill="none" stroke="black" d="M306.657,-271.165C281.938,-268.74 255.663,-261.904 236,-246 165.787,-189.211 224.175,-123.334 164,-56 157.572,-48.807 149.46,-42.7805 140.981,-37.8016"/>
<polygon fill="none" stroke="black" points="142.529,-34.6599 132.067,-32.9872 139.203,-40.8189 142.529,-34.6599"/>
</g>
<!-- \\Phine\\Observer\\ObserverInterface -->
<g id="node12" class="node"><title>\\Phine\\Observer\\ObserverInterface</title>
<polygon fill="none" stroke="black" points="714,-104 600,-104 600,-68 714,-68 714,-104"/>
<text text-anchor="middle" x="657" y="-83.1" font-family="Times Roman,serif" font-size="11.00">ObserverInterface</text>
</g>
</g>
</svg>
