<?xml version="1.0" encoding="UTF-8" standalone="no"?>
<!DOCTYPE svg PUBLIC "-//W3C//DTD SVG 1.1//EN"
 "http://www.w3.org/Graphics/SVG/1.1/DTD/svg11.dtd">
<!-- Generated by graphviz version 2.26.3 (20100126.1600)
 -->
<!-- Title: G Pages: 1 -->
<svg width="624pt" height="636pt"
 viewBox="0.00 0.00 624.00 636.00" xmlns="http://www.w3.org/2000/svg" xmlns:xlink="http://www.w3.org/1999/xlink">
<g id="graph1" class="graph" transform="scale(1 1) rotate(0) translate(4 632)">
<title>G</title>
<polygon fill="white" stroke="white" points="-4,5 -4,-632 621,-632 621,5 -4,5"/>
<g id="graph2" class="cluster"><title>cluster_Global</title>
<polyline fill="none" stroke="gray" points="20,-98 596,-98 "/>
<path fill="none" stroke="gray" d="M596,-98C602,-98 608,-104 608,-110"/>
<polyline fill="none" stroke="gray" points="608,-110 608,-608 "/>
<path fill="none" stroke="gray" d="M608,-608C608,-614 602,-620 596,-620"/>
<polyline fill="none" stroke="gray" points="596,-620 20,-620 "/>
<path fill="none" stroke="gray" d="M20,-620C14,-620 8,-614 8,-608"/>
<polyline fill="none" stroke="gray" points="8,-608 8,-110 "/>
<path fill="none" stroke="gray" d="M8,-110C8,-104 14,-98 20,-98"/>
<text text-anchor="middle" x="308" y="-606.1" font-family="Times Roman,serif" font-size="11.00" fill="gray">\</text>
</g>
<g id="graph3" class="cluster"><title>cluster_\Phine</title>
<polyline fill="none" stroke="gray" points="28,-106 588,-106 "/>
<path fill="none" stroke="gray" d="M588,-106C594,-106 600,-112 600,-118"/>
<polyline fill="none" stroke="gray" points="600,-118 600,-578 "/>
<path fill="none" stroke="gray" d="M600,-578C600,-584 594,-590 588,-590"/>
<polyline fill="none" stroke="gray" points="588,-590 28,-590 "/>
<path fill="none" stroke="gray" d="M28,-590C22,-590 16,-584 16,-578"/>
<polyline fill="none" stroke="gray" points="16,-578 16,-118 "/>
<path fill="none" stroke="gray" d="M16,-118C16,-112 22,-106 28,-106"/>
<text text-anchor="middle" x="308" y="-576.1" font-family="Times Roman,serif" font-size="11.00" fill="gray">Phine</text>
</g>
<g id="graph4" class="cluster"><title>cluster_\Phine\Observer</title>
<polyline fill="none" stroke="gray" points="36,-196 580,-196 "/>
<path fill="none" stroke="gray" d="M580,-196C586,-196 592,-202 592,-208"/>
<polyline fill="none" stroke="gray" points="592,-208 592,-548 "/>
<path fill="none" stroke="gray" d="M592,-548C592,-554 586,-560 580,-560"/>
<polyline fill="none" stroke="gray" points="580,-560 36,-560 "/>
<path fill="none" stroke="gray" d="M36,-560C30,-560 24,-554 24,-548"/>
<polyline fill="none" stroke="gray" points="24,-548 24,-208 "/>
<path fill="none" stroke="gray" d="M24,-208C24,-202 30,-196 36,-196"/>
<text text-anchor="middle" x="308" y="-546.1" font-family="Times Roman,serif" font-size="11.00" fill="gray">Observer</text>
</g>
<g id="graph5" class="cluster"><title>cluster_\Phine\Observer\Exception</title>
<polyline fill="none" stroke="gray" points="458,-250 572,-250 "/>
<path fill="none" stroke="gray" d="M572,-250C578,-250 584,-256 584,-262"/>
<polyline fill="none" stroke="gray" points="584,-262 584,-420 "/>
<path fill="none" stroke="gray" d="M584,-420C584,-426 578,-432 572,-432"/>
<polyline fill="none" stroke="gray" points="572,-432 458,-432 "/>
<path fill="none" stroke="gray" d="M458,-432C452,-432 446,-426 446,-420"/>
<polyline fill="none" stroke="gray" points="446,-420 446,-262 "/>
<path fill="none" stroke="gray" d="M446,-262C446,-256 452,-250 458,-250"/>
<text text-anchor="middle" x="515" y="-418.1" font-family="Times Roman,serif" font-size="11.00" fill="gray">Exception</text>
</g>
<g id="graph6" class="cluster"><title>cluster_\Phine\Exception</title>
<polyline fill="none" stroke="gray" points="277,-114 341,-114 "/>
<path fill="none" stroke="gray" d="M341,-114C347,-114 353,-120 353,-126"/>
<polyline fill="none" stroke="gray" points="353,-126 353,-176 "/>
<path fill="none" stroke="gray" d="M353,-176C353,-182 347,-188 341,-188"/>
<polyline fill="none" stroke="gray" points="341,-188 277,-188 "/>
<path fill="none" stroke="gray" d="M277,-188C271,-188 265,-182 265,-176"/>
<polyline fill="none" stroke="gray" points="265,-176 265,-126 "/>
<path fill="none" stroke="gray" d="M265,-126C265,-120 271,-114 277,-114"/>
<text text-anchor="middle" x="309" y="-174.1" font-family="Times Roman,serif" font-size="11.00" fill="gray">Exception</text>
</g>
<!-- \\Phine\\Observer\\Exception\\CollectionException -->
<g id="node5" class="node"><title>\\Phine\\Observer\\Exception\\CollectionException</title>
<polygon fill="none" stroke="black" points="576,-402 454,-402 454,-366 576,-366 576,-402"/>
<text text-anchor="middle" x="515" y="-381.1" font-family="Times Roman,serif" font-size="11.00">CollectionException</text>
</g>
<!-- \\Phine\\Exception\\Exception -->
<g id="node16" class="node"><title>\\Phine\\Exception\\Exception</title>
<polygon fill="none" stroke="black" points="344,-158 274,-158 274,-122 344,-122 344,-158"/>
<text text-anchor="middle" x="309" y="-137.1" font-family="Times Roman,serif" font-size="11.00">Exception</text>
</g>
<!-- \\Phine\\Observer\\Exception\\CollectionException&#45;&gt;\\Phine\\Exception\\Exception -->
<g id="edge15" class="edge"><title>\\Phine\\Observer\\Exception\\CollectionException&#45;&gt;\\Phine\\Exception\\Exception</title>
<path fill="none" stroke="black" d="M457.285,-365.929C453.191,-363.331 449.36,-360.371 446,-357 390.464,-301.299 430.283,-254.093 382,-192 373.551,-181.135 362.226,-171.57 351.02,-163.704"/>
<polygon fill="none" stroke="black" points="352.784,-160.673 342.525,-158.026 348.894,-166.493 352.784,-160.673"/>
</g>
<!-- \\Phine\\Observer\\Exception\\SubjectException -->
<g id="node6" class="node"><title>\\Phine\\Observer\\Exception\\SubjectException</title>
<polygon fill="none" stroke="black" points="570,-348 460,-348 460,-312 570,-312 570,-348"/>
<text text-anchor="middle" x="515" y="-327.1" font-family="Times Roman,serif" font-size="11.00">SubjectException</text>
</g>
<!-- \\Phine\\Observer\\Exception\\SubjectException&#45;&gt;\\Phine\\Exception\\Exception -->
<g id="edge17" class="edge"><title>\\Phine\\Observer\\Exception\\SubjectException&#45;&gt;\\Phine\\Exception\\Exception</title>
<path fill="none" stroke="black" d="M459.203,-312.134C454.486,-309.47 449.998,-306.439 446,-303 402.828,-265.864 420.29,-234.151 382,-192 372.495,-181.537 360.544,-171.952 349.079,-163.939"/>
<polygon fill="none" stroke="black" points="350.704,-160.813 340.455,-158.129 346.793,-166.619 350.704,-160.813"/>
</g>
<!-- \\Phine\\Observer\\Exception\\ReasonException -->
<g id="node7" class="node"><title>\\Phine\\Observer\\Exception\\ReasonException</title>
<polygon fill="none" stroke="black" points="570,-294 460,-294 460,-258 570,-258 570,-294"/>
<text text-anchor="middle" x="515" y="-273.1" font-family="Times Roman,serif" font-size="11.00">ReasonException</text>
</g>
<!-- \\Phine\\Observer\\Exception\\ReasonException&#45;&gt;\\Phine\\Exception\\Exception -->
<g id="edge19" class="edge"><title>\\Phine\\Observer\\Exception\\ReasonException&#45;&gt;\\Phine\\Exception\\Exception</title>
<path fill="none" stroke="black" d="M459.745,-260.958C454.968,-258.894 450.316,-256.582 446,-254 412.014,-233.67 412.436,-217.338 382,-192 370.356,-182.307 357.009,-172.465 344.94,-163.989"/>
<polygon fill="none" stroke="black" points="346.631,-160.903 336.419,-158.081 342.642,-166.655 346.631,-160.903"/>
</g>
<!-- \\Phine\\Observer\\Subject -->
<g id="node8" class="node"><title>\\Phine\\Observer\\Subject</title>
<polygon fill="none" stroke="black" points="543,-530 487,-530 487,-494 543,-494 543,-530"/>
<text text-anchor="middle" x="515" y="-509.1" font-family="Times Roman,serif" font-size="11.00">Subject</text>
</g>
<!-- \\Phine\\Observer\\SubjectInterface -->
<g id="node12" class="node"><title>\\Phine\\Observer\\SubjectInterface</title>
<polygon fill="none" stroke="black" points="361,-530 257,-530 257,-494 361,-494 361,-530"/>
<text text-anchor="middle" x="309" y="-509.1" font-family="Times Roman,serif" font-size="11.00">SubjectInterface</text>
</g>
<!-- \\Phine\\Observer\\Subject&#45;&gt;\\Phine\\Observer\\SubjectInterface -->
<g id="edge7" class="edge"><title>\\Phine\\Observer\\Subject&#45;&gt;\\Phine\\Observer\\SubjectInterface</title>
<path fill="none" stroke="black" stroke-dasharray="1,5" d="M486.357,-512C456.825,-512 409.83,-512 371.634,-512"/>
<polygon fill="none" stroke="black" points="371.624,-508.5 361.624,-512 371.624,-515.5 371.624,-508.5"/>
</g>
<!-- \\Phine\\Observer\\Collection -->
<g id="node9" class="node"><title>\\Phine\\Observer\\Collection</title>
<polygon fill="none" stroke="black" points="343,-476 275,-476 275,-440 343,-440 343,-476"/>
<text text-anchor="middle" x="309" y="-455.1" font-family="Times Roman,serif" font-size="11.00">Collection</text>
</g>
<!-- \\Phine\\Observer\\CollectionInterface -->
<g id="node13" class="node"><title>\\Phine\\Observer\\CollectionInterface</title>
<polygon fill="none" stroke="black" points="148,-449 32,-449 32,-413 148,-413 148,-449"/>
<text text-anchor="middle" x="90" y="-428.1" font-family="Times Roman,serif" font-size="11.00">CollectionInterface</text>
</g>
<!-- \\Phine\\Observer\\Collection&#45;&gt;\\Phine\\Observer\\CollectionInterface -->
<g id="edge9" class="edge"><title>\\Phine\\Observer\\Collection&#45;&gt;\\Phine\\Observer\\CollectionInterface</title>
<path fill="none" stroke="black" stroke-dasharray="1,5" d="M274.781,-453.781C243.75,-449.955 197.085,-444.202 158.415,-439.435"/>
<polygon fill="none" stroke="black" points="158.61,-435.932 148.257,-438.182 157.753,-442.88 158.61,-435.932"/>
</g>
<!-- \\Phine\\Observer\\ArrayCollection -->
<g id="node10" class="node"><title>\\Phine\\Observer\\ArrayCollection</title>
<polygon fill="none" stroke="black" points="564,-476 466,-476 466,-440 564,-440 564,-476"/>
<text text-anchor="middle" x="515" y="-455.1" font-family="Times Roman,serif" font-size="11.00">ArrayCollection</text>
</g>
<!-- \\Phine\\Observer\\ArrayCollection&#45;&gt;\\Phine\\Observer\\Collection -->
<g id="edge11" class="edge"><title>\\Phine\\Observer\\ArrayCollection&#45;&gt;\\Phine\\Observer\\Collection</title>
<path fill="none" stroke="black" d="M465.92,-458C431.772,-458 386.612,-458 353.509,-458"/>
<polygon fill="none" stroke="black" points="353.215,-454.5 343.214,-458 353.214,-461.5 353.215,-454.5"/>
</g>
<!-- \\Phine\\Observer\\ArrayCollectionInterface -->
<g id="node14" class="node"><title>\\Phine\\Observer\\ArrayCollectionInterface</title>
<polygon fill="none" stroke="black" points="382,-422 236,-422 236,-386 382,-386 382,-422"/>
<text text-anchor="middle" x="309" y="-401.1" font-family="Times Roman,serif" font-size="11.00">ArrayCollectionInterface</text>
</g>
<!-- \\Phine\\Observer\\ArrayCollection&#45;&gt;\\Phine\\Observer\\ArrayCollectionInterface -->
<g id="edge13" class="edge"><title>\\Phine\\Observer\\ArrayCollection&#45;&gt;\\Phine\\Observer\\ArrayCollectionInterface</title>
<path fill="none" stroke="black" stroke-dasharray="1,5" d="M465.92,-445.134C442.599,-439.021 414.142,-431.562 387.897,-424.682"/>
<polygon fill="none" stroke="black" points="388.523,-421.228 377.963,-422.078 386.748,-427.999 388.523,-421.228"/>
</g>
<!-- \\Phine\\Observer\\ObserverInterface -->
<g id="node11" class="node"><title>\\Phine\\Observer\\ObserverInterface</title>
<polygon fill="none" stroke="black" points="572,-240 458,-240 458,-204 572,-204 572,-240"/>
<text text-anchor="middle" x="515" y="-219.1" font-family="Times Roman,serif" font-size="11.00">ObserverInterface</text>
</g>
<!-- \\Phine\\Observer\\ArrayCollectionInterface&#45;&gt;\\Phine\\Observer\\CollectionInterface -->
<g id="edge25" class="edge"><title>\\Phine\\Observer\\ArrayCollectionInterface&#45;&gt;\\Phine\\Observer\\CollectionInterface</title>
<path fill="none" stroke="black" d="M235.772,-413.028C210.745,-416.114 182.868,-419.551 158.249,-422.586"/>
<polygon fill="none" stroke="black" points="157.772,-419.118 148.275,-423.815 158.628,-426.065 157.772,-419.118"/>
</g>
<!-- \\ArrayAccess -->
<g id="node27" class="node"><title>\\ArrayAccess</title>
<ellipse fill="none" stroke="black" cx="90" cy="-72" rx="73.0388" ry="18.3848"/>
<text text-anchor="middle" x="90" y="-68.4" font-family="Times Roman,serif" font-size="14.00" fill="gray">\ArrayAccess</text>
</g>
<!-- \\Phine\\Observer\\ArrayCollectionInterface&#45;&gt;\\ArrayAccess -->
<g id="edge23" class="edge"><title>\\Phine\\Observer\\ArrayCollectionInterface&#45;&gt;\\ArrayAccess</title>
<path fill="none" stroke="black" d="M296.914,-385.677C260.259,-330.11 150.243,-163.327 107.371,-98.3338"/>
<polygon fill="none" stroke="black" points="110.21,-96.2811 101.782,-89.8608 104.366,-100.136 110.21,-96.2811"/>
</g>
<!-- \\Exception -->
<g id="node25" class="node"><title>\\Exception</title>
<ellipse fill="none" stroke="black" cx="90" cy="-18" rx="62.9325" ry="18.3848"/>
<text text-anchor="middle" x="90" y="-14.4" font-family="Times Roman,serif" font-size="14.00" fill="gray">\Exception</text>
</g>
<!-- \\Phine\\Exception\\Exception&#45;&gt;\\Exception -->
<g id="edge21" class="edge"><title>\\Phine\\Exception\\Exception&#45;&gt;\\Exception</title>
<path fill="none" stroke="black" d="M285.149,-121.893C257.229,-101.297 209.059,-67.6017 164,-45 156.952,-41.4647 149.325,-38.1524 141.738,-35.1418"/>
<polygon fill="none" stroke="black" points="142.785,-31.7952 132.195,-31.4957 140.287,-38.3343 142.785,-31.7952"/>
</g>
</g>
</svg>
